HIERARCHY
ROOT Pelvis
{
	OFFSET 0.000000 0.000000 0.000000
	CHANNELS 6 Xposition Yposition Zposition Xrotation Yrotation Zrotation
	JOINT LeftUpLeg_virtual
	{
		OFFSET 0.000000 0.000000 0.000000
		CHANNELS 3 Xrotation Yrotation Zrotation
		JOINT LeftUpLeg
		{
			OFFSET 18.735201 -5.666702 -4.541200
			CHANNELS 3 Xrotation Yrotation Zrotation
			JOINT LeftLeg
			{
				OFFSET -0.021200 -31.938179 0.493100
				CHANNELS 3 Xrotation Yrotation Zrotation
				JOINT LeftFoot
				{
					OFFSET 0.021200 -31.938179 -4.336299
					CHANNELS 3 Xrotation Yrotation Zrotation
					JOINT LeftToeBase
					{
						OFFSET 0.943001 -26.722000 15.023500
						CHANNELS 3 Xrotation Yrotation Zrotation
						End Site
						{
							OFFSET 0 0 0
						}
					}
				}
			}
		}
	}
	JOINT RightUpLeg_virtual
	{
		OFFSET 0.000000 0.000000 0.000000
		CHANNELS 3 Xrotation Yrotation Zrotation
		JOINT RightUpLeg
		{
			OFFSET -18.735201 -5.666702 -4.541200
			CHANNELS 3 Xrotation Yrotation Zrotation
			JOINT RightLeg
			{
				OFFSET 0.018946 -31.938133 0.493100
				CHANNELS 3 Xrotation Yrotation Zrotation
				JOINT RightFoot
				{
					OFFSET -0.018946 -31.938126 -4.336299
					CHANNELS 3 Xrotation Yrotation Zrotation
					JOINT RightToeBase
					{
						OFFSET -0.943001 -26.722004 15.023500
						CHANNELS 3 Xrotation Yrotation Zrotation
						End Site
						{
							OFFSET 0 0 0
						}
					}
				}
			}
		}
	}
	JOINT Hips_virtual
	{
		OFFSET 0.000000 0.000000 0.000000
		CHANNELS 3 Xrotation Yrotation Zrotation
		JOINT Hips
		{
			OFFSET -0.000000 -0.000000 -0.000000
			CHANNELS 3 Xrotation Yrotation Zrotation
			JOINT Spine
			{
				OFFSET 0.000000 10.199997 -0.299500
				CHANNELS 3 Xrotation Yrotation Zrotation
				JOINT Spine1
				{
					OFFSET 0.000000 11.900002 -1.516600
					CHANNELS 3 Xrotation Yrotation Zrotation
					JOINT Spine2
					{
						OFFSET 0.000000 13.600006 -2.842500
						CHANNELS 3 Xrotation Yrotation Zrotation
						JOINT Neck_virtual
						{
							OFFSET 0.000000 0.000000 0.000000
							CHANNELS 3 Xrotation Yrotation Zrotation
							JOINT Neck
							{
								OFFSET 0.000000 9.624100 -2.890100
								CHANNELS 3 Xrotation Yrotation Zrotation
								JOINT Head
								{
									OFFSET 0.000000 14.068802 -1.351900
									CHANNELS 3 Xrotation Yrotation Zrotation
									End Site
									{
										OFFSET 0 0 0
									}
								}
							}
						}
						JOINT LeftShoulder_virtual
						{
							OFFSET 0.000000 0.000000 0.000000
							CHANNELS 3 Xrotation Yrotation Zrotation
							JOINT LeftShoulder
							{
								OFFSET 15.263000 10.923401 -0.547700
								CHANNELS 3 Xrotation Yrotation Zrotation
								JOINT LeftArm
								{
									OFFSET 25.438599 -2.830597 -13.032500
									CHANNELS 3 Xrotation Yrotation Zrotation
									JOINT LeftForeArm
									{
										OFFSET 29.960503 0.000000 0.000000
										CHANNELS 3 Xrotation Yrotation Zrotation
										JOINT LeftHand
										{
											OFFSET 27.849251 0.000000 0.000000
											CHANNELS 3 Xrotation Yrotation Zrotation
											End Site
											{
												OFFSET 0 0 0
											}
										}
									}
								}
							}
						}
						JOINT RightShoulder_virtual
						{
							OFFSET 0.000000 0.000000 0.000000
							CHANNELS 3 Xrotation Yrotation Zrotation
							JOINT RightShoulder
							{
								OFFSET -15.263000 10.923401 -0.547700
								CHANNELS 3 Xrotation Yrotation Zrotation
								JOINT RightArm
								{
									OFFSET -25.438599 -2.830597 -13.032500
									CHANNELS 3 Xrotation Yrotation Zrotation
									JOINT RightForeArm
									{
										OFFSET -29.960503 0.000000 0.000000
										CHANNELS 3 Xrotation Yrotation Zrotation
										JOINT RightHand
										{
											OFFSET -27.849251 0.000000 0.000000
											CHANNELS 3 Xrotation Yrotation Zrotation
											End Site
											{
												OFFSET 0 0 0
											}
										}
									}
								}
							}
						}
					}
				}
			}
		}
	}
}
MOTION
Frames: 13
Frame Time: 0.03333333
-0.113866 109.462936 2.749374 0.000000 0.000000 0.000000 -90.807365 -2.094816 1.697373 -10.377924 17.337913 19.703491 12.481920 1.205835 1.433476 21.968704 29.941924 -28.484790 0.000000 0.000000 0.000000 -90.807365 -2.094816 1.697373 -13.903266 -16.049865 -21.592934 14.288498 -5.354657 -4.610885 32.403490 -29.920644 33.605067 0.000000 0.000000 0.000000 -90.807365 -2.094816 1.697373 0.000000 0.000000 0.000000 0.698689 -0.116037 -0.848578 0.841701 0.154199 -0.463161 0.000000 0.000000 0.000000 0.831244 0.158014 -0.488484 -1.630410 1.534527 -3.394681 0.000000 0.000000 0.000000 0.831244 0.158014 -0.488484 0.834126 -6.730774 -3.480306 44.076584 -39.845852 -34.620911 0.000093 -83.340500 0.000103 0.000000 0.000000 0.000000 0.831244 0.158014 -0.488484 0.483607 4.500680 3.202686 -4.326316 2.268514 83.611508 -179.999964 50.428035 179.999950 0.000000 0.000000 0.000000 
-0.113725 109.462990 2.750219 0.000000 0.000000 0.000000 -90.808110 -2.094533 1.698595 -10.379856 17.336992 19.704319 12.486151 1.191901 1.433520 21.970227 29.941531 -28.484349 0.000000 0.000000 0.000000 -90.808110 -2.094533 1.698595 -13.904415 -16.049304 -21.593344 14.288769 -5.348316 -4.610951 32.403865 -29.920593 33.604599 0.000000 0.000000 0.000000 -90.808110 -2.094533 1.698595 0.000000 0.000000 0.000000 0.698742 -0.116027 -0.848584 0.841706 0.154199 -0.463160 0.000000 0.000000 0.000000 0.831228 0.158014 -0.488483 -1.633935 1.536190 -3.396466 0.000000 0.000000 0.000000 0.831228 0.158014 -0.488483 0.834527 -6.714838 -3.485308 44.088963 -39.859468 -34.587695 0.000102 -83.340500 0.000118 0.000000 0.000000 0.000000 0.831228 0.158014 -0.488483 0.484300 4.488121 3.202632 -4.331819 2.278526 83.612471 -179.999978 50.433400 179.999991 0.000000 0.000000 0.000000 
-0.113188 109.463211 2.750984 0.000000 0.000000 0.000000 -90.809168 -2.094168 1.699709 -10.380082 17.336612 19.704660 12.490469 1.180098 1.433608 21.968627 29.940370 -28.483919 0.000000 0.000000 0.000000 -90.809168 -2.094168 1.699709 -13.906304 -16.054001 -21.594423 14.289285 -5.336011 -4.610609 32.403777 -29.920822 33.603332 0.000000 0.000000 0.000000 -90.809168 -2.094168 1.699709 0.000000 0.000000 0.000000 0.698675 -0.116022 -0.848553 0.841681 0.154199 -0.463160 0.000000 0.000000 0.000000 0.831234 0.158014 -0.488483 -1.644252 1.540295 -3.398483 0.000000 0.000000 0.000000 0.831234 0.158014 -0.488483 0.834871 -6.690143 -3.495206 44.105848 -39.875044 -34.542917 -0.000024 -83.340500 -0.000029 0.000000 0.000000 0.000000 0.831234 0.158014 -0.488483 0.485162 4.473281 3.202566 -4.337916 2.290710 83.617648 -179.999978 50.440032 179.999991 0.000000 0.000000 0.000000 
-0.112256 109.463684 2.751755 0.000000 0.000000 0.000000 -90.810363 -2.093599 1.700585 -10.380716 17.343601 19.703120 12.493690 1.181104 1.433723 21.959973 29.938983 -28.482478 0.000000 0.000000 0.000000 -90.810363 -2.093599 1.700585 -13.906525 -16.063847 -21.595106 14.290180 -5.332966 -4.610023 32.402049 -29.921416 33.602601 0.000000 0.000000 0.000000 -90.810363 -2.093599 1.700585 0.000000 0.000000 0.000000 0.698686 -0.116047 -0.848380 0.841702 0.154199 -0.463160 0.000000 0.000000 0.000000 0.831234 0.158014 -0.488483 -1.660755 1.546483 -3.400414 0.000000 0.000000 0.000000 0.831234 0.158014 -0.488483 0.835173 -6.657531 -3.509656 44.126881 -39.892420 -34.487568 0.000052 -83.340500 0.000040 0.000000 0.000000 0.000000 0.831234 0.158014 -0.488483 0.486094 4.456129 3.202493 -4.344466 2.305371 83.623058 -179.999978 50.447938 179.999978 0.000000 0.000000 0.000000 
-0.110903 109.464516 2.752632 0.000000 0.000000 0.000000 -90.811832 -2.093094 1.701359 -10.386401 17.351438 19.703829 12.495238 1.152512 1.433932 21.960332 29.936753 -28.480156 0.000000 0.000000 0.000000 -90.811832 -2.093094 1.701359 -13.909662 -16.075199 -21.597243 14.293096 -5.318923 -4.609499 32.397384 -29.919101 33.597386 0.000000 0.000000 0.000000 -90.811832 -2.093094 1.701359 0.000000 0.000000 0.000000 0.698678 -0.116088 -0.848184 0.841705 0.154199 -0.463161 0.000000 0.000000 0.000000 0.835887 0.158013 -0.488483 -1.682899 1.554442 -3.402036 0.000000 0.000000 0.000000 0.835887 0.158013 -0.488483 0.835479 -6.617842 -3.528197 44.151453 -39.911176 -34.423033 0.000069 -83.340500 0.000085 0.000000 0.000000 0.000000 0.835887 0.158013 -0.488483 0.487200 4.436631 3.202407 -4.352114 2.322246 83.628823 -179.999991 50.456936 -179.999991 0.000000 0.000000 0.000000 
-0.109583 109.465424 2.753174 0.000000 0.000000 0.000000 -90.813348 -2.092430 1.701891 -10.389405 17.363721 19.701798 12.499142 1.148029 1.434137 21.948673 29.934875 -28.474830 0.000000 0.000000 0.000000 -90.813348 -2.092430 1.701891 -13.913538 -16.088031 -21.603965 14.299307 -5.304291 -4.608805 32.388907 -29.917765 33.592257 0.000000 0.000000 0.000000 -90.813348 -2.092430 1.701891 0.000000 0.000000 0.000000 0.698705 -0.116143 -0.847816 0.846332 0.154198 -0.463160 0.000000 0.000000 0.000000 0.841254 0.158013 -0.488484 -1.710105 1.563802 -3.402101 0.000000 0.000000 0.000000 0.841254 0.158013 -0.488484 0.835792 -6.571852 -3.550380 44.179067 -39.931130 -34.350510 0.000037 -83.340500 0.000026 0.000000 0.000000 0.000000 0.841254 0.158013 -0.488484 0.488426 4.415046 3.202312 -4.360229 2.341241 83.634874 -179.999978 50.467045 179.999978 0.000000 0.000000 0.000000 
-0.107653 109.466492 2.754328 0.000000 0.000000 0.000000 -90.815022 -2.091723 1.702150 -10.393953 17.377678 19.701027 12.499282 1.123765 1.434443 21.943436 29.931979 -28.474027 0.000000 0.000000 0.000000 -90.815022 -2.091723 1.702150 -13.919389 -16.102338 -21.612059 14.308957 -5.285704 -4.608053 32.378935 -29.916751 33.587339 0.000000 0.000000 0.000000 -90.815022 -2.091723 1.702150 0.000000 0.000000 0.000000 0.698706 -0.116225 -0.847244 0.851512 0.154199 -0.463161 0.000000 0.000000 0.000000 0.847222 0.158014 -0.488483 -1.741838 1.574234 -3.400190 0.000000 0.000000 0.000000 0.847222 0.158014 -0.488483 0.836082 -6.520417 -3.575786 44.209219 -39.951911 -34.271314 0.000132 -83.340500 0.000114 0.000000 0.000000 0.000000 0.847222 0.158014 -0.488483 0.489733 4.391507 3.202213 -4.368897 2.362212 83.641561 -179.999978 50.478254 179.999978 0.000000 0.000000 0.000000 
-0.105507 109.467957 2.756241 0.000000 0.000000 0.000000 -90.815889 -2.088865 1.702374 -10.399659 17.393333 19.700089 12.501163 1.097516 1.434767 21.936264 29.928800 -28.475252 0.000000 0.000000 0.000000 -90.815889 -2.088865 1.702374 -13.930821 -16.118113 -21.620926 14.317874 -5.260715 -4.607360 32.370821 -29.915177 33.581742 0.000000 0.000000 0.000000 -90.815889 -2.088865 1.702374 0.000000 0.000000 0.000000 0.698703 -0.116275 -0.842064 0.857164 0.154198 -0.463160 0.000000 0.000000 0.000000 0.853695 0.158014 -0.488483 -1.777498 1.585458 -3.396030 0.000000 0.000000 0.000000 0.853695 0.158014 -0.488483 0.836399 -6.464316 -3.603985 44.241461 -39.973262 -34.186558 0.000113 -83.340500 0.000092 0.000000 0.000000 0.000000 0.853695 0.158014 -0.488483 0.491153 4.366084 3.202103 -4.378121 2.385070 83.648896 179.999964 50.490384 -179.999991 0.000000 0.000000 0.000000 
-0.103055 109.469513 2.758209 0.000000 0.000000 0.000000 -90.816620 -2.085742 1.702583 -10.407601 17.409520 19.703930 12.508305 1.072583 1.435059 21.924636 29.925613 -28.476872 0.000000 0.000000 0.000000 -90.816620 -2.085742 1.702583 -13.942576 -16.135729 -21.630463 14.326856 -5.236329 -4.606666 32.361095 -29.912882 33.574369 0.000000 0.000000 0.000000 -90.816620 -2.085742 1.702583 0.000000 0.000000 0.000000 0.698682 -0.116316 -0.836492 0.863144 0.154199 -0.463161 0.000000 0.000000 0.000000 0.860532 0.158014 -0.488483 -1.816444 1.597297 -3.389994 0.000000 0.000000 0.000000 0.860532 0.158014 -0.488483 0.836775 -6.404468 -3.634537 44.275264 -39.994869 -34.097677 -0.000025 -83.340534 -0.000052 0.000000 0.000000 0.000000 0.860532 0.158014 -0.488483 0.492925 4.338947 3.198778 -4.387943 2.409575 83.656779 -179.999937 50.503450 179.999937 0.000000 0.000000 0.000000 
-0.100310 109.471176 2.760513 0.000000 0.000000 0.000000 -90.817214 -2.082437 1.702664 -10.417897 17.426490 19.708567 12.517722 1.044276 1.435409 21.911915 29.921211 -28.477618 0.000000 0.000000 0.000000 -90.817214 -2.082437 1.702664 -13.955768 -16.154318 -21.641219 14.342132 -5.217357 -4.605916 32.345833 -29.909388 33.564936 0.000000 0.000000 0.000000 -90.817214 -2.082437 1.702664 0.000000 0.000000 0.000000 0.698712 -0.116382 -0.830490 0.869473 0.154199 -0.463160 0.000000 0.000000 0.000000 0.867653 0.158014 -0.487364 -1.858155 1.609631 -3.382622 0.000000 0.000000 0.000000 0.867653 0.158014 -0.487364 0.837208 -6.341542 -3.667025 44.310060 -40.016514 -34.005750 -0.000013 -83.340500 -0.000006 0.000000 0.000000 0.000000 0.867653 0.158014 -0.487364 0.494802 4.310106 3.194976 -4.398425 2.435715 83.665255 -179.999991 50.517329 -179.999991 0.000000 0.000000 0.000000 
-0.097158 109.473068 2.763832 0.000000 0.000000 0.000000 -90.817665 -2.078985 1.702522 -10.429849 17.444172 19.714369 12.525717 1.004051 1.435844 21.902960 29.913374 -28.482545 0.000000 0.000000 0.000000 -90.817665 -2.078985 1.702522 -13.973402 -16.172331 -21.652898 14.360782 -5.188576 -4.605238 32.333579 -29.905703 33.555265 0.000000 0.000000 0.000000 -90.817665 -2.078985 1.702522 0.000000 0.000000 0.000000 0.698723 -0.116449 -0.824032 0.875986 0.154198 -0.463161 0.000000 0.000000 0.000000 0.874912 0.158014 -0.485780 -1.901921 1.622309 -3.374415 0.000000 0.000000 0.000000 0.874912 0.158014 -0.485780 0.837679 -6.276426 -3.700997 44.345461 -40.037865 -33.912087 -0.000000 -83.340500 -0.000028 0.000000 0.000000 0.000000 0.874912 0.158014 -0.485780 0.496802 4.279798 3.190821 -4.409490 2.463277 83.674277 -179.999950 50.532021 179.999964 0.000000 0.000000 0.000000 
-0.094070 109.475052 2.767151 0.000000 0.000000 0.000000 -90.817843 -2.075337 1.702385 -10.443775 17.462388 19.720735 12.539035 0.969505 1.436253 21.888536 29.907202 -28.484921 0.000000 0.000000 0.000000 -90.817843 -2.075337 1.702385 -13.991648 -16.191390 -21.665032 14.381083 -5.163116 -4.604602 32.317979 -29.901171 33.543698 0.000000 0.000000 0.000000 -90.817843 -2.075337 1.702385 0.000000 0.000000 0.000000 0.698719 -0.116516 -0.817415 0.882683 0.154199 -0.460398 0.000000 0.000000 0.000000 0.882208 0.158014 -0.484028 -1.947217 1.635199 -3.365901 0.000000 0.000000 0.000000 0.882208 0.158014 -0.484028 0.838173 -6.210009 -3.736025 44.380923 -40.058639 -33.818008 0.000129 -83.340534 0.000112 0.000000 0.000000 0.000000 0.882208 0.158014 -0.484028 0.498894 4.248130 3.186091 -4.421263 2.492141 83.683935 179.999978 50.547399 -179.999991 0.000000 0.000000 0.000000 
-0.091126 109.477287 2.770617 0.000000 0.000000 0.000000 -90.817808 -2.071441 1.702296 -10.459216 17.481055 19.727663 12.556890 0.939331 1.436652 21.869578 29.902486 -28.485415 0.000000 0.000000 0.000000 -90.817808 -2.071441 1.702296 -14.011606 -16.210645 -21.677309 14.401517 -5.132018 -4.604057 32.304520 -29.896479 33.531482 0.000000 0.000000 0.000000 -90.817808 -2.071441 1.702296 0.000000 0.000000 0.000000 0.698739 -0.117848 -0.810766 0.889420 0.154199 -0.457417 0.000000 0.000000 0.000000 0.889398 0.158014 -0.482136 -1.993325 1.648154 -3.357587 0.000000 0.000000 0.000000 0.889398 0.158014 -0.482136 0.838742 -6.143430 -3.771595 44.415815 -40.078341 -33.725084 -0.000064 -83.340561 -0.000057 0.000000 0.000000 0.000000 0.889398 0.158014 -0.482136 0.501096 4.215573 3.180958 -4.433603 2.521887 83.694003 179.999978 50.563324 -179.999991 0.000000 0.000000 0.000000 
